<?xml version="1.0" encoding="UTF-8" standalone="no"?>
<!-- Created with Inkscape (http://www.inkscape.org/) -->

<svg
   width="580.08612"
   height="635.39819"
   viewBox="0 0 153.48062 168.11569"
   version="1.1"
   id="svg1"
   xmlns:xlink="http://www.w3.org/1999/xlink"
   xmlns="http://www.w3.org/2000/svg"
   xmlns:svg="http://www.w3.org/2000/svg"
   xmlns:rdf="http://www.w3.org/1999/02/22-rdf-syntax-ns#"
   xmlns:cc="http://creativecommons.org/ns#"
   xmlns:dc="http://purl.org/dc/elements/1.1/">
  <title
     id="title1">Noel Yobani Miranda – Personal Logo</title>
  <defs
     id="defs1">
    <linearGradient
       id="linearGradient52">
      <stop
         style="stop-color:#0a203d;stop-opacity:1;"
         offset="0"
         id="stop51" />
      <stop
         style="stop-color:#0e2c52;stop-opacity:1;"
         offset="0.95984197"
         id="stop52" />
    </linearGradient>
    <linearGradient
       id="linearGradient7">
      <stop
         style="stop-color:#0a203d;stop-opacity:1;"
         offset="0"
         id="stop11" />
      <stop
         style="stop-color:#0a203d;stop-opacity:0.67582417;"
         offset="1"
         id="stop12" />
    </linearGradient>
    <linearGradient
       id="swatch8">
      <stop
         style="stop-color:#ffffff;stop-opacity:1;"
         offset="0"
         id="stop8" />
    </linearGradient>
    <linearGradient
       id="linearGradient33">
      <stop
         style="stop-color:#0a203d;stop-opacity:1;"
         offset="0"
         id="stop33" />
      <stop
         style="stop-color:#0a203d;stop-opacity:0.52173913;"
         offset="1"
         id="stop34" />
    </linearGradient>
    <linearGradient
       id="linearGradient4">
      <stop
         style="stop-color:#2b5d9f;stop-opacity:1;"
         offset="0"
         id="stop6" />
      <stop
         style="stop-color:#0e2c52;stop-opacity:1;"
         offset="0.95984197"
         id="stop7" />
    </linearGradient>
    <radialGradient
       xlink:href="#linearGradient4"
       id="radialGradient8"
       cx="37.752102"
       cy="68.269241"
       fx="37.752102"
       fy="68.269241"
       r="69.925735"
       gradientTransform="matrix(1.5159668,1.5937146,-0.89790027,0.85409705,41.840372,-49.324812)"
       gradientUnits="userSpaceOnUse"
       spreadMethod="pad" />
    <clipPath
       clipPathUnits="userSpaceOnUse"
       id="clipPath33">
      <path
         id="path33"
         clip-path="none"
         style="fill:#0055d4;stroke-width:4.7625"
         d="m 149.73871,90.967843 c -0.10881,0.14193 -14.9942,19.547647 -25.74001,24.516317 -14.53168,6.71918 -32.063435,8.1492 -47.766054,5.0276 -10.49174,-2.08571 -17.553672,-14.30609 -28.203442,-15.31068 -7.252212,-0.6841 -20.8168,6.65075 -20.8168,6.65075 l 1.835546,6.3531 c 2.64e-4,8e-4 7.93e-4,10e-4 0.0011,0.002 0.225946,0.5519 0.456647,1.09089 0.691946,1.61644 1.749403,-0.61163 14.326897,-4.87378 21.583165,-3.60908 14.35448,2.50184 28.438861,17.35831 42.949812,18.67844 9.389017,0.85417 19.363657,-0.83437 27.847897,-4.94543 9.89486,-4.79457 24.65327,-21.91545 24.65327,-21.91545 l 2.72748,-15.437292 c 0.0807,-0.54909 0.15932,-1.07629 0.23616,-1.62678 z" />
    </clipPath>
    <linearGradient
       xlink:href="#linearGradient33"
       id="linearGradient34"
       x1="27.212404"
       y1="113.03814"
       x2="149.73878"
       y2="113.03814"
       gradientUnits="userSpaceOnUse" />
    <linearGradient
       xlink:href="#linearGradient7"
       id="linearGradient12"
       x1="98.692154"
       y1="231.70421"
       x2="173.2347"
       y2="232.14803"
       gradientUnits="userSpaceOnUse" />
    <filter
       style="color-interpolation-filters:sRGB"
       id="filter47"
       x="-0.01685385"
       y="-0.0093167956"
       width="1.0337077"
       height="1.0186336">
      <feGaussianBlur
         stdDeviation="0.48340964"
         id="feGaussianBlur47" />
    </filter>
    <radialGradient
       xlink:href="#linearGradient52"
       id="radialGradient51"
       gradientUnits="userSpaceOnUse"
       gradientTransform="matrix(1.5159668,1.5937146,-0.89790027,0.85409705,41.840372,-49.324812)"
       cx="37.752102"
       cy="68.269241"
       fx="37.752102"
       fy="68.269241"
       r="69.925735"
       spreadMethod="pad" />
    <filter
       style="color-interpolation-filters:sRGB"
       id="filter52"
       x="-0.068519943"
       y="-0.062989682"
       width="1.1366223"
       height="1.1289247">
      <feGaussianBlur
         stdDeviation="2.8394922"
         id="feGaussianBlur52" />
    </filter>
    <filter
       style="color-interpolation-filters:sRGB"
       id="filter60"
       x="-0.0074507685"
       y="-0.030814297"
       width="1.0149015"
       height="1.0616286">
      <feGaussianBlur
         stdDeviation="0.09511744"
         id="feGaussianBlur60" />
    </filter>
  </defs>
  <g
     id="layer1"
     transform="translate(-83.756547,-84.332544)">
    <path
       id="path48"
       style="opacity:0.3;mix-blend-mode:normal;fill:url(#radialGradient51);stroke:#0a203d;stroke-width:4.7625;stroke-dasharray:none;stroke-opacity:1;filter:url(#filter52)"
       transform="translate(74.855215,67.085604)"
       d="m 85.669603,175.5438 c 0,0 -40.846446,-31.94064 -53.078719,-50.43012 C 19.465503,105.27424 18.153316,46.091564 18.153316,46.091564 c 0,0 6.493457,0.352481 14.25744,-0.206488 10.994842,-0.791575 27.579973,-8.201135 37.73873,-12.640019 8.343481,-3.645696 15.520117,-6.617905 15.520117,-6.617905 0,0 7.239424,2.809047 15.619357,6.418043 10.17932,4.383938 26.61433,12.175384 37.60018,12.90935 7.73185,0.516565 14.29675,0.137019 14.29675,0.137019 0,0 0.0271,59.311086 -12.83902,79.022116 -11.69281,17.91348 -54.677267,50.43012 -54.677267,50.43012 z" />
    <path
       id="path2"
       style="mix-blend-mode:normal;fill:url(#radialGradient8);stroke:#0a203d;stroke-width:4.7625;stroke-dasharray:none;stroke-opacity:1"
       transform="translate(74.325931,66.556485)"
       d="m 85.669603,175.5438 c 0,0 -40.846446,-31.94064 -53.078719,-50.43012 C 19.465503,105.27424 18.153316,46.091564 18.153316,46.091564 c 0,0 6.493457,0.352481 14.25744,-0.206488 10.994842,-0.791575 27.579973,-8.201135 37.73873,-12.640019 8.343481,-3.645696 15.520117,-6.617905 15.520117,-6.617905 0,0 7.239424,2.809047 15.619357,6.418043 10.17932,4.383938 26.61433,12.175384 37.60018,12.90935 7.73185,0.516565 14.29675,0.137019 14.29675,0.137019 0,0 0.0271,59.311086 -12.83902,79.022116 -11.69281,17.91348 -54.677267,50.43012 -54.677267,50.43012 z" />
  </g>
  <g
     id="layer2"
     transform="translate(-83.756547,-84.332544)">
    <path
       id="path3"
       style="mix-blend-mode:normal;fill:url(#linearGradient34);fill-opacity:1;stroke:#0a203d;stroke-width:4.7625;stroke-dasharray:none;stroke-opacity:1"
       transform="translate(74.527149,67.965011)"
       d="m 87.031321,175.5438 c 0,0 -42.208164,-31.94064 -54.440437,-50.43012 C 19.465503,105.27424 18.153316,46.091564 18.153316,46.091564 c 0,0 6.493456,0.352481 14.257438,-0.206488 10.994843,-0.791575 27.597873,-8.169135 37.823129,-12.450706 8.911697,-3.731551 16.797438,-6.807218 16.797438,-6.807218 0,0 6.545031,2.706484 14.350519,6.219376 10.10794,4.549118 26.52145,12.374051 37.5073,13.108017 7.73185,0.516565 14.29675,0.137019 14.29675,0.137019 0,0 0.0271,59.311086 -12.83902,79.022116 -11.69281,17.91348 -53.315549,50.43012 -53.315549,50.43012 z"
       clip-path="url(#clipPath33)" />
  </g>
  <g
     id="layer3"
     style="display:inline"
     transform="translate(-83.756547,-84.332544)">
    <path
       d="m 186.34921,164.0905 v -7.40831 h 1.72508 l 4.08516,4.93182 h -0.81492 v -4.93182 h 2.05316 v 7.40831 h -1.72508 l -4.08515,-4.93182 h 0.81491 v 4.93182 z m 13.48313,0 v -3.13266 l 0.48683,1.25942 -3.31257,-5.53507 h 2.21191 l 2.39182,4.01107 h -1.28058 l 2.40241,-4.01107 h 2.032 l -3.30199,5.53507 0.46566,-1.25942 v 3.13266 z m 8.54074,0 v -7.40831 h 1.72507 l 3.06916,5.03765 h -0.91016 l 2.98449,-5.03765 h 1.72507 l 0.0212,7.40831 h -1.92616 l -0.0212,-4.47674 h 0.32809 l -2.23308,3.74649 h -0.93133 l -2.29658,-3.74649 h 0.40217 v 4.47674 z"
       id="text60"
       style="font-size:10.5833px;line-height:28.3104px;font-family:Montserrat;-inkscape-font-specification:'Montserrat, @wght=800';font-variation-settings:'wght' 800;opacity:0.25;fill:#0a203d;stroke-width:4.7625;filter:url(#filter60)"
       aria-label="N Y M" />
    <path
       d="m 185.82018,163.56137 v -7.40831 h 1.72507 l 4.08516,4.93182 h -0.81492 v -4.93182 h 2.05316 v 7.40831 h -1.72507 l -4.08516,-4.93182 h 0.81492 v 4.93182 z m 13.48312,0 v -3.13266 l 0.48683,1.25942 -3.31257,-5.53507 h 2.21191 l 2.39183,4.01107 h -1.28058 l 2.40241,-4.01107 h 2.03199 l -3.30199,5.53507 0.46567,-1.25942 v 3.13266 z m 8.54074,0 v -7.40831 h 1.72508 l 3.06915,5.03765 h -0.91016 l 2.98449,-5.03765 h 1.72508 l 0.0212,7.40831 h -1.92616 l -0.0212,-4.47673 h 0.32808 l -2.23308,3.74648 h -0.93133 l -2.29657,-3.74648 h 0.40216 v 4.47673 z"
       id="text53"
       style="font-size:10.5833px;line-height:28.3104px;font-family:Montserrat;-inkscape-font-specification:'Montserrat, @wght=800';font-variation-settings:'wght' 800;fill:#ffffff;stroke-width:4.7625"
       aria-label="N Y M" />
  </g>
  <g
     id="layer5"
     transform="translate(-83.756547,-84.332544)">
    <path
       id="rect6"
       style="font-variation-settings:'wght' 800;fill:url(#linearGradient12);stroke-width:0"
       transform="matrix(0.98769417,-0.15639763,0.19498809,0.98080561,0,0)"
       d="m 72.5797,219.27504 c 0,0 9.546729,-5.28078 14.546397,-4.77989 6.341062,0.63528 11.091556,6.00091 16.282763,9.54194 6.52576,4.45135 10.84793,12.79705 18.60017,14.65472 7.23783,1.7344 15.20438,-1.42567 22.29924,-4.17732 7.68782,-2.98162 14.8222,-6.74876 22.15509,-9.18027 2.17444,-0.72102 6.77134,-0.85326 6.77134,-0.85326 -9.16541,7.74837 -9.58269,11.77251 -21.00031,15.34112 -2.50444,0.78277 -7.50519,4.01231 -11.49432,5.38097 -6.67425,2.28992 -13.82194,6.15189 -20.57118,4.65316 -8.5424,-1.89692 -14.13585,-10.14127 -20.319778,-16.1833 -3.832812,-3.74487 -7.577389,-8.83776 -12.97037,-9.5208 -2.753748,-0.34877 -7.923415,3.01913 -7.923415,3.01913 z" />
  </g>
  <g
     id="layer6"
     style="display:inline"
     transform="translate(-83.756547,-84.332544)">
    <path
       id="path47"
       style="font-variation-settings:'wght' 800;opacity:0.25;fill:#0a203d;fill-opacity:1;stroke-width:0;filter:url(#filter47)"
       d="m 158.57256,103.26259 c -0.31482,5.9e-4 -0.53776,0.10397 -0.56831,0.35069 -0.0447,0.36104 0.74841,1.29807 1.29038,1.8593 l 1.40512,1.45479 c 1.09334,1.13222 2.37556,4.93682 2.37556,4.93682 0,0 -2.41807,-1.42022 -3.55772,-2.30342 -0.79647,-0.61725 -1.30782,-1.52346 -2.53642,-1.64462 -1.19594,-0.11792 0.80676,2.07312 1.53758,2.87882 1.43993,1.58738 3.54437,3.11371 5.64233,4.25082 1.12841,0.61161 2.614,1.07639 3.67187,1.6671 -1.85019,1.08376 -6.24602,0.12757 -9.03389,-0.78417 -1.70465,-0.55752 -6.48428,-3.69902 -10.06761,-3.77535 -0.95251,-0.0203 -2.70455,-0.0644 -2.71678,0.88825 -0.007,0.55498 1.02131,0.47002 1.56951,0.55884 0.90959,0.14738 2.75936,0.75165 2.75936,0.75165 1.87258,0.51011 2.02074,1.46366 2.02074,1.46366 0,0 -1.43517,0.14642 -2.15557,0.17445 -0.76246,0.0296 -2.13108,-0.75378 -2.28921,-0.007 -0.24096,1.13731 1.9287,1.24866 3.19225,1.40453 2.20639,0.27217 4.01937,-0.56256 6.23963,1.13188 1.27096,0.96999 3.17095,1.87895 4.94805,2.61273 -0.0497,0.0183 -0.0995,0.0364 -0.14903,0.055 -2.72197,0.0846 -5.63642,-0.12492 -7.51108,-0.36074 -2.23709,-0.28151 -7.40699,-3.14343 -11.16285,-2.48911 -0.86464,0.15062 -2.17029,0.5321 -2.22476,1.40807 -0.0378,0.61062 0.27282,1.07946 1.41753,1.1662 l 3.58551,0.26967 c 2.43307,0.18292 2.93442,1.09818 2.93442,1.09818 0,0 -1.06582,0.65635 -1.65762,0.83857 -1.09263,0.33642 -3.20688,0.22227 -2.78185,1.08222 0.65493,1.32507 2.83858,0.69617 4.23013,0.42757 2.3414,-0.45195 3.77436,-1.53639 6.91911,0.0254 1.63359,0.81133 4.53944,2.33614 6.44662,2.65648 -0.72116,0.70886 -1.52573,1.64615 -3.18635,2.38266 -3.87569,1.71891 -11.08097,0.2921 -3.00243,2.54173 1.96884,0.54826 5.8204,0.14562 7.93216,-0.93142 -2.14453,1.37124 -4.60592,2.70615 -7.12551,2.56008 -1.99977,-0.11594 -4.06575,-1.08298 -5.38273,-2.67185 -0.27822,-0.29856 -0.5677,-0.73845 -0.44472,-1.12126 0.14825,-0.46146 0.75839,-0.64839 1.22298,-0.78652 2.26482,-0.67334 4.64079,-0.61795 6.95756,-0.95449 -0.0327,-0.30377 -0.13898,-0.46582 -0.6032,-0.58309 -1.52705,-0.41763 -2.53086,-0.92024 -4.39867,-1.78597 -0.48729,-0.28644 -1.09433,-0.0885 -1.52221,0.21644 -1.89595,1.13733 -3.79232,2.19939 -5.58314,3.45857 -1.76497,1.241 -3.51259,2.53084 -5.06935,4.02473 -2.00218,1.92131 -3.7886,4.07132 -5.44052,6.30097 -1.65446,2.23309 -3.13982,4.59971 -4.45027,7.05056 -1.07084,2.00272 -1.9755,4.09692 -2.77181,6.22377 -0.79803,2.13143 -1.4366,4.32312 -2.00154,6.52781 -0.3843,1.49973 -0.71069,3.01723 -0.94175,4.54807 -0.23094,1.53003 -0.38637,3.07461 -0.44233,4.62096 -0.0535,1.47762 -0.013,2.96049 0.10237,4.43457 0.1154,1.47466 0.33444,2.94114 0.58895,4.39825 0.31306,1.79228 0.62872,3.59279 1.15244,5.3352 0.51936,1.72789 0.76572,2.97271 1.96353,5.04407 2.13441,3.69101 5.27959,6.74192 8.40526,9.64182 2.83535,2.63055 6.06535,4.81662 9.29231,6.94869 2.43966,1.6119 5.03722,2.972 7.58797,4.40163 2.01236,1.12788 4.19371,1.97518 6.08647,3.29396 1.72261,1.20023 3.5797,2.40231 4.73101,4.15799 2.12583,3.24177 2.44859,4.60138 3.55951,11.07177 0.13193,0.76836 1.30418,-2.03727 2.13724,-4.65947 0.85806,-2.7009 1.97838,-5.72392 1.67774,-8.64357 -0.30423,-2.95454 -1.58796,-5.89954 -3.44478,-8.21779 -2.60093,-3.24728 -6.80046,-4.79523 -10.17952,-7.22249 -2.26104,-1.62416 -4.52819,-3.24065 -6.75458,-4.91199 -2.28659,-1.71653 -4.78513,-3.20564 -6.78074,-5.2532 -2.01107,-2.06342 -3.80662,-4.40069 -5.11659,-6.96703 -0.74243,-1.45449 -1.54209,-3.0324 -1.49679,-4.66479 0.0447,-1.61223 1.00725,-3.57716 1.73156,-4.51812 0.56207,-0.73021 1.62119,-1.21489 2.53583,-1.10174 1.38426,0.17124 2.01432,1.45128 3.31585,2.55239 1.71125,1.6272 1.72023,1.80773 2.74163,2.50803 1.4952,1.02515 3.22761,1.65362 4.87058,2.41993 0.50319,0.23468 0.73843,0.29646 1.52635,0.66647 0.6518,0.30608 1.66352,0.75029 1.9202,0.16146 0.49361,-1.13239 -1.55474,-1.88951 -2.74104,-2.49385 -0.6534,-0.33286 -1.33852,-0.63811 -1.89831,-1.1118 -0.13354,-0.113 -0.24131,-0.36968 -0.3365,-0.40271 1.07774,-0.33595 2.4613,-0.23847 3.47907,-0.28683 0.90774,-0.0114 1.29567,-0.11998 1.9137,0.0385 0.71974,0.18456 1.23246,1.0538 1.9752,1.03312 0.23859,-0.007 0.67261,-0.0523 0.61504,-0.36665 -0.22179,-0.73577 -0.78567,-1.13875 -1.35839,-1.49086 -1.07298,-0.65967 -2.49068,-0.75476 -3.64112,-1.01007 -0.56628,-0.11432 -1.13088,-0.23697 -1.69488,-0.36192 -0.3052,-0.13867 -0.31039,-0.64586 -0.007,-0.7889 0.94082,-0.69765 2.67635,-1.22107 4.10535,-1.23539 0.91992,-0.009 1.76326,0.60643 2.65824,0.74217 0.67104,0.16394 0.51497,-0.75163 0.25962,-0.9385 -0.51175,-0.47318 -1.80918,-0.8853 -2.44298,-1.16857 -0.56521,-0.11375 -1.12051,0.10385 -1.67302,0.19338 -1.41175,0.29606 -3.25416,0.97995 -4.71505,0.82558 -0.58847,-0.0649 -1.02289,-0.60883 -1.59613,-1.48733 -0.7517,-0.90961 -1.11969,-2.43494 -1.16561,-3.43058 -0.039,-0.84506 -0.0547,-1.84005 -0.63336,-2.45718 -1.14178,-1.21784 -3.11635,-1.26209 -4.75881,-1.56064 -1.59232,-0.28945 -4.85108,-0.20757 -4.85108,-0.20757 0,0 4.63951,-1.37174 6.98417,-1.12186 0.90584,0.0966 1.6545,0.80728 2.54648,0.99233 0.29201,0.0605 0.6113,0.12764 0.89416,0.0331 1.54607,-0.51639 2.69682,-1.8787 3.79546,-3.08285 1.55533,-1.70468 2.54187,-3.85253 3.85518,-5.74996 0.16779,-0.24241 0.48398,-0.42649 0.51452,-0.71971 0.12307,-1.18223 -1.33899,-2.08168 -1.43055,-3.26677 -0.1196,-1.54828 0.65518,-3.04722 1.19104,-4.50334 0.42988,-1.03561 0.85989,-2.07149 1.28979,-3.1071 -0.0624,1.08105 -0.29148,2.14287 -0.41928,3.2165 -0.14866,1.00582 -0.29725,2.0114 -0.4459,3.01721 0.22451,1.53369 1.06281,2.90334 2.07514,4.0474 2.49621,2.90525 5.37515,5.44373 8.21601,8.00133 0.53558,0.46441 1.07119,0.92888 1.60677,1.3933 0.52265,0.77507 0.94061,1.61335 1.36786,2.44297 0.20055,0.25853 0.70193,0.0787 0.67062,-0.25429 0.004,-1.35371 -0.56459,-2.61617 -1.13782,-3.8132 -0.14289,-0.29794 -0.31939,-0.58267 -0.42045,-0.8989 0.0498,-0.31142 0.4616,-0.28412 0.7197,-0.28564 1.47544,-0.009 2.86789,0.796 4.13314,1.58431 1.02964,0.75622 1.96064,1.6336 2.92791,2.46545 0.2708,0.2 0.70253,-0.15786 0.53402,-0.45832 -0.20976,-0.59124 -0.59316,-1.09704 -0.87583,-1.6529 -0.25121,-0.43994 -0.40506,-0.95213 -0.75343,-1.31995 -0.75787,-0.80018 -1.75283,-1.23077 -2.77828,-1.79247 -0.23937,-0.13112 -0.59971,-0.25641 -0.57897,-0.57896 0.0969,-0.30721 0.46461,-0.35069 0.72858,-0.43761 0.73172,-0.21119 1.47457,-0.38128 2.2153,-0.55709 0.73636,-0.0679 1.39982,0.33019 2.02251,0.66649 0.36948,0.22797 0.73935,0.45565 1.10884,0.68364 0.30479,0.0968 0.60223,-0.34136 0.37789,-0.58075 -0.58245,-0.70113 -1.18918,-1.46801 -2.02546,-1.82203 -0.87994,-0.3725 -1.90683,-0.21997 -2.85992,-0.19574 -1.14671,0.0502 -2.344,0.12599 -3.43353,-0.30634 -0.99267,-0.42135 -1.79587,-1.16901 -2.57309,-1.89655 -0.74933,-0.74795 -1.45728,-1.56411 -1.92671,-2.52045 -0.69672,-1.47415 -0.81832,-3.23681 -0.21526,-4.76354 0.54941,-1.48339 1.63357,-2.70201 2.85163,-3.68133 1.89098,-1.64487 3.88583,-3.16396 5.86824,-4.69555 0.2794,-0.21936 0.12546,-0.73351 -0.21881,-0.78474 -1.22981,-0.44517 -2.4969,-0.93186 -3.45543,-1.85516 -0.17575,-0.18592 -0.48393,-0.45549 -0.27735,-0.71498 0.22797,-0.27182 0.58651,-0.0469 0.85218,0.0556 0.27211,0.105 0.33012,0.13097 0.75637,0.28505 3.67614,1.32886 8.56065,1.8809 11.72407,0.25487 1.04497,-0.53713 2.07602,-1.09739 2.87054,-1.53817 0.81395,-0.45156 1.97563,-1.38642 2.60206,-2.07515 l 0.0254,-0.0284 -4.26856,0.56892 c -0.36056,0.048 -0.948,0.0851 -1.31168,0.0781 -1.38828,-0.0269 -4.37482,-0.13177 -2.95807,-0.52869 0.80778,-0.22634 3.19047,-0.51881 6.3786,-1.03313 3.18814,-0.51433 5.46751,-1.87368 5.77362,-3.44359 0.308,-1.57955 -0.7239,-2.11727 -2.27739,-3.24135 -1.53759,-1.11257 -3.47806,-2.51586 -5.3295,-3.62277 -1.69401,-1.01279 -4.00161,-2.12805 -6.16156,-2.75997 -1.41286,-0.41335 -2.89638,-0.61146 -4.36792,-0.65169 -1.55423,-0.0425 -3.15126,0.86987 -4.64409,0.43524 -2.43477,-0.70887 -4.48188,-3.09466 -6.00959,-4.66478 -1.0686,-1.09828 -3.59869,-5.11816 -5.13078,-6.74171 -0.52665,-0.55813 -1.66579,-1.05393 -2.35842,-1.05265 z m 22.35645,17.33506 c 1.63668,-1e-4 2.9635,1.09795 2.9634,2.45244 -2.7e-4,1.35083 -1.32051,2.44711 -2.95275,2.45186 -0.001,-0.004 -0.003,-0.009 -0.004,-0.0141 -0.003,1e-5 -0.008,1e-5 -0.0114,0 -1.05806,-1.2e-4 -1.98569,-0.45969 -2.50982,-1.15025 -0.0422,-0.0554 -0.0816,-0.11226 -0.11827,-0.17032 -0.004,-0.005 -0.008,-0.011 -0.0114,-0.0165 -0.0193,-0.0313 -0.0361,-0.0638 -0.0537,-0.0957 -0.0473,-0.0843 -0.0888,-0.17081 -0.12419,-0.25904 -0.0305,-0.0789 -0.0562,-0.15904 -0.0769,-0.24009 -6.7e-4,-0.003 -0.001,-0.007 -0.002,-0.01 -0.0407,-0.16304 -0.0613,-0.32909 -0.0614,-0.49558 -1e-4,-1.35449 1.32672,-2.45254 2.96339,-2.45244 z m -9.13265,10.9121 c 3.1e-4,-4e-5 0.001,4e-5 0.002,0 0.003,-7e-5 0.007,6.8e-4 0.01,0.002 0.0168,0.0387 0.0215,0.059 0.0202,0.0662 v 5.9e-4 5.9e-4 l -6e-4,5.9e-4 -6e-4,6e-4 h -5.8e-4 v 5.8e-4 h -5.9e-4 -6e-4 -5.8e-4 -6e-4 l -5.9e-4,-5.8e-4 h -5.9e-4 c -0.0126,-0.004 -0.0402,-0.048 -0.0349,-0.0645 v -5.9e-4 l 5.8e-4,-5.8e-4 5.9e-4,-6e-4 5.9e-4,-6e-4 v -5.9e-4 -5.8e-4 h 5.9e-4 l 6e-4,-6e-4 5.9e-4,-6e-4 5.8e-4,-5.8e-4 h 6e-4 c 8.5e-4,-3.1e-4 0.001,-9.4e-4 0.003,-0.001 z" />
    <path
       id="path12"
       style="font-variation-settings:'wght' 800;fill:#ffffff;stroke-width:0"
       d="m 158.04348,102.73347 c -0.31482,5.9e-4 -0.53776,0.10397 -0.56831,0.35069 -0.0447,0.36104 0.74841,1.29807 1.29038,1.8593 l 1.40512,1.45479 c 1.09334,1.13222 2.37556,4.93682 2.37556,4.93682 0,0 -2.41807,-1.42022 -3.55772,-2.30342 -0.79647,-0.61725 -1.30782,-1.52346 -2.53642,-1.64462 -1.19594,-0.11792 0.80676,2.07312 1.53758,2.87882 1.43993,1.58738 3.54437,3.11371 5.64233,4.25082 1.12841,0.61161 2.614,1.07639 3.67187,1.6671 -1.85019,1.08376 -6.24602,0.12757 -9.03389,-0.78417 -1.70465,-0.55752 -6.48428,-3.69902 -10.06761,-3.77535 -0.95251,-0.0203 -2.70455,-0.0644 -2.71678,0.88825 -0.007,0.55498 1.02131,0.47002 1.56951,0.55884 0.90959,0.14738 2.75936,0.75165 2.75936,0.75165 1.87258,0.51011 2.02074,1.46366 2.02074,1.46366 0,0 -1.43517,0.14642 -2.15557,0.17445 -0.76246,0.0296 -2.13108,-0.75378 -2.28921,-0.007 -0.24096,1.13731 1.9287,1.24866 3.19225,1.40453 2.20639,0.27217 4.01937,-0.56256 6.23963,1.13188 1.27096,0.96999 3.17095,1.87895 4.94805,2.61273 -0.0497,0.0183 -0.0995,0.0364 -0.14903,0.055 -2.72197,0.0846 -5.63642,-0.12492 -7.51108,-0.36074 -2.23709,-0.28151 -7.40699,-3.14343 -11.16285,-2.48911 -0.86464,0.15062 -2.17029,0.5321 -2.22476,1.40807 -0.0378,0.61062 0.27282,1.07946 1.41753,1.1662 l 3.58551,0.26967 c 2.43307,0.18292 2.93442,1.09818 2.93442,1.09818 0,0 -1.06582,0.65635 -1.65762,0.83857 -1.09263,0.33642 -3.20688,0.22227 -2.78185,1.08222 0.65493,1.32507 2.83858,0.69617 4.23013,0.42757 2.3414,-0.45195 3.77436,-1.53639 6.91911,0.0254 1.63359,0.81133 4.53944,2.33614 6.44662,2.65648 -0.72116,0.70886 -1.52573,1.64615 -3.18635,2.38266 -3.87569,1.71891 -11.08097,0.2921 -3.00243,2.54173 1.96884,0.54826 5.8204,0.14562 7.93216,-0.93142 -2.14453,1.37124 -4.60592,2.70615 -7.12551,2.56008 -1.99977,-0.11594 -4.06575,-1.08298 -5.38273,-2.67185 -0.27822,-0.29856 -0.5677,-0.73845 -0.44472,-1.12126 0.14825,-0.46146 0.75839,-0.64839 1.22298,-0.78652 2.26482,-0.67334 4.64079,-0.61795 6.95756,-0.95449 -0.0327,-0.30377 -0.13898,-0.46582 -0.6032,-0.58309 -1.52705,-0.41763 -2.53086,-0.92024 -4.39867,-1.78597 -0.48729,-0.28644 -1.09433,-0.0885 -1.52221,0.21644 -1.89595,1.13733 -3.79232,2.19939 -5.58314,3.45857 -1.76497,1.241 -3.51259,2.53084 -5.06935,4.02473 -2.00218,1.92131 -3.7886,4.07132 -5.44052,6.30097 -1.65446,2.23309 -3.13982,4.59971 -4.45027,7.05056 -1.07084,2.00272 -1.9755,4.09692 -2.77181,6.22377 -0.79803,2.13143 -1.4366,4.32312 -2.00154,6.52781 -0.3843,1.49973 -0.71069,3.01723 -0.94175,4.54807 -0.23094,1.53003 -0.38637,3.07461 -0.44233,4.62096 -0.0535,1.47762 -0.013,2.96049 0.10237,4.43457 0.1154,1.47466 0.33444,2.94114 0.58895,4.39825 0.31306,1.79228 0.62497,3.59392 1.15244,5.3352 0.26252,0.86661 0.61464,1.70607 0.99633,2.52719 0.38131,0.82029 0.78295,1.63822 1.28846,2.38838 2.3622,3.5054 5.0225,6.8557 8.084,9.77032 2.80124,2.66685 6.06535,4.81662 9.29231,6.94869 2.43966,1.6119 5.03722,2.972 7.58797,4.40163 2.01236,1.12788 4.19371,1.97518 6.08647,3.29396 1.72261,1.20023 3.5797,2.40231 4.73101,4.15799 2.12583,3.24177 2.44859,4.60138 3.55951,11.07177 0.13193,0.76836 1.30418,-2.03727 2.13724,-4.65947 0.85806,-2.7009 1.97838,-5.72392 1.67774,-8.64357 -0.30423,-2.95454 -1.58796,-5.89954 -3.44478,-8.21779 -2.60093,-3.24728 -6.80046,-4.79523 -10.17952,-7.22249 -2.26104,-1.62416 -4.52819,-3.24065 -6.75458,-4.91199 -2.28659,-1.71653 -4.78513,-3.20564 -6.78074,-5.2532 -2.01107,-2.06342 -3.80662,-4.40069 -5.11659,-6.96703 -0.74243,-1.45449 -1.54209,-3.0324 -1.49679,-4.66479 0.0447,-1.61223 1.00725,-3.57716 1.73156,-4.51812 0.56207,-0.73021 1.62119,-1.21489 2.53583,-1.10174 1.38426,0.17124 2.01432,1.45128 3.31585,2.55239 1.71125,1.6272 1.72023,1.80773 2.74163,2.50803 1.4952,1.02515 3.22761,1.65362 4.87058,2.41993 0.50319,0.23468 0.73843,0.29646 1.52635,0.66647 0.6518,0.30608 1.66352,0.75029 1.9202,0.16146 0.49361,-1.13239 -1.55474,-1.88951 -2.74104,-2.49385 -0.6534,-0.33286 -1.33852,-0.63811 -1.89831,-1.1118 -0.13354,-0.113 -0.24131,-0.36968 -0.3365,-0.40271 1.07774,-0.33595 2.4613,-0.23847 3.47907,-0.28683 0.90774,-0.0114 1.29567,-0.11998 1.9137,0.0385 0.71974,0.18456 1.23246,1.0538 1.9752,1.03312 0.23859,-0.007 0.67261,-0.0523 0.61504,-0.36665 -0.22179,-0.73577 -0.78567,-1.13875 -1.35839,-1.49086 -1.07298,-0.65967 -2.49068,-0.75476 -3.64112,-1.01007 -0.56628,-0.11432 -1.13088,-0.23697 -1.69488,-0.36192 -0.3052,-0.13867 -0.31039,-0.64586 -0.007,-0.7889 0.94082,-0.69765 2.67635,-1.22107 4.10535,-1.23539 0.91992,-0.009 1.76326,0.60643 2.65824,0.74217 0.67104,0.16394 0.51497,-0.75163 0.25962,-0.9385 -0.51175,-0.47318 -1.80918,-0.8853 -2.44298,-1.16857 -0.56521,-0.11375 -1.12051,0.10385 -1.67302,0.19338 -1.41175,0.29606 -3.25416,0.97995 -4.71505,0.82558 -0.58847,-0.0649 -1.02289,-0.60883 -1.59613,-1.48733 -0.7517,-0.90961 -1.11969,-2.43494 -1.16561,-3.43058 -0.039,-0.84506 -0.0547,-1.84005 -0.63336,-2.45718 -1.14178,-1.21784 -3.11635,-1.26209 -4.75881,-1.56064 -1.59232,-0.28945 -4.85108,-0.20757 -4.85108,-0.20757 0,0 4.63951,-1.37174 6.98417,-1.12186 0.90584,0.0966 1.6545,0.80728 2.54648,0.99233 0.29201,0.0605 0.6113,0.12764 0.89416,0.0331 1.54607,-0.51639 2.69682,-1.8787 3.79546,-3.08285 1.55533,-1.70468 2.54187,-3.85253 3.85518,-5.74996 0.16779,-0.24241 0.48398,-0.42649 0.51452,-0.71971 0.12307,-1.18223 -1.33899,-2.08168 -1.43055,-3.26677 -0.1196,-1.54828 0.65518,-3.04722 1.19104,-4.50334 0.42988,-1.03561 0.85989,-2.07149 1.28979,-3.1071 -0.0624,1.08105 -0.29148,2.14287 -0.41928,3.2165 -0.14866,1.00582 -0.29725,2.0114 -0.4459,3.01721 0.22451,1.53369 1.06281,2.90334 2.07514,4.0474 2.49621,2.90525 5.37515,5.44373 8.21601,8.00133 0.53558,0.46441 1.07119,0.92888 1.60677,1.3933 0.52265,0.77507 0.94061,1.61335 1.36786,2.44297 0.20055,0.25853 0.70193,0.0787 0.67062,-0.25429 0.004,-1.35371 -0.56459,-2.61617 -1.13782,-3.8132 -0.14289,-0.29794 -0.31939,-0.58267 -0.42045,-0.8989 0.0498,-0.31142 0.4616,-0.28412 0.7197,-0.28564 1.47544,-0.009 2.86789,0.796 4.13314,1.58431 1.02964,0.75622 1.96064,1.6336 2.92791,2.46545 0.2708,0.2 0.70253,-0.15786 0.53402,-0.45832 -0.20976,-0.59124 -0.59316,-1.09704 -0.87583,-1.6529 -0.25121,-0.43994 -0.40506,-0.95213 -0.75343,-1.31995 -0.75787,-0.80018 -1.75283,-1.23077 -2.77828,-1.79247 -0.23937,-0.13112 -0.59971,-0.25641 -0.57897,-0.57896 0.0969,-0.30721 0.46461,-0.35069 0.72858,-0.43761 0.73172,-0.21119 1.47457,-0.38128 2.2153,-0.55709 0.73636,-0.0679 1.39982,0.33019 2.02251,0.66649 0.36948,0.22797 0.73935,0.45565 1.10884,0.68364 0.30479,0.0968 0.60223,-0.34136 0.37789,-0.58075 -0.58245,-0.70113 -1.18918,-1.46801 -2.02546,-1.82203 -0.87994,-0.3725 -1.90683,-0.21997 -2.85992,-0.19574 -1.14671,0.0502 -2.344,0.12599 -3.43353,-0.30634 -0.99267,-0.42135 -1.79587,-1.16901 -2.57309,-1.89655 -0.74933,-0.74795 -1.45728,-1.56411 -1.92671,-2.52045 -0.69672,-1.47415 -0.81832,-3.23681 -0.21526,-4.76354 0.54941,-1.48339 1.63357,-2.70201 2.85163,-3.68133 1.89098,-1.64487 3.88583,-3.16396 5.86824,-4.69555 0.2794,-0.21936 0.12546,-0.73351 -0.21881,-0.78474 -1.22981,-0.44517 -2.4969,-0.93186 -3.45543,-1.85516 -0.17575,-0.18592 -0.48393,-0.45549 -0.27735,-0.71498 0.22797,-0.27182 0.58651,-0.0469 0.85218,0.0556 0.27211,0.105 0.33012,0.13097 0.75637,0.28505 3.67614,1.32886 8.56065,1.8809 11.72407,0.25487 1.04497,-0.53713 2.07602,-1.09739 2.87054,-1.53817 0.81395,-0.45156 1.97563,-1.38642 2.60206,-2.07515 l 0.0254,-0.0284 -4.26856,0.56892 c -0.36056,0.048 -0.948,0.0851 -1.31168,0.0781 -1.38828,-0.0269 -4.37482,-0.13177 -2.95807,-0.52869 0.80778,-0.22634 3.19047,-0.51881 6.3786,-1.03313 3.18814,-0.51433 5.46751,-1.87368 5.77362,-3.44359 0.308,-1.57955 -0.7239,-2.11727 -2.27739,-3.24135 -1.53759,-1.11257 -3.47806,-2.51586 -5.3295,-3.62277 -1.69401,-1.01279 -4.00161,-2.12805 -6.16156,-2.75997 -1.41286,-0.41335 -2.89638,-0.61146 -4.36792,-0.65169 -1.55423,-0.0425 -3.15126,0.86987 -4.64409,0.43524 -2.43477,-0.70887 -4.48188,-3.09466 -6.00959,-4.66478 -1.0686,-1.09828 -3.59869,-5.11816 -5.13078,-6.74171 -0.52665,-0.55813 -1.66579,-1.05393 -2.35842,-1.05265 z m 22.35645,17.33506 c 1.63668,-10e-5 2.9635,1.09795 2.9634,2.45244 -2.7e-4,1.35083 -1.32051,2.44711 -2.95275,2.45186 -0.001,-0.004 -0.003,-0.009 -0.004,-0.0141 -0.003,1e-5 -0.008,1e-5 -0.0114,0 -1.05806,-1.2e-4 -1.98569,-0.45969 -2.50982,-1.15025 -0.0422,-0.0554 -0.0816,-0.11226 -0.11827,-0.17032 -0.004,-0.005 -0.008,-0.011 -0.0114,-0.0165 -0.0193,-0.0313 -0.0361,-0.0638 -0.0537,-0.0957 -0.0473,-0.0843 -0.0888,-0.17081 -0.12419,-0.25904 -0.0305,-0.0789 -0.0562,-0.15904 -0.0769,-0.24009 -6.7e-4,-0.003 -0.001,-0.007 -0.002,-0.01 -0.0407,-0.16304 -0.0613,-0.32909 -0.0614,-0.49558 -1e-4,-1.35449 1.32672,-2.45254 2.96339,-2.45244 z m -9.13265,10.9121 c 3.1e-4,-4e-5 0.001,4e-5 0.002,0 0.003,-7e-5 0.007,6.8e-4 0.01,0.002 0.0168,0.0387 0.0215,0.059 0.0202,0.0662 v 5.9e-4 5.9e-4 l -6e-4,5.9e-4 -6e-4,6e-4 h -5.8e-4 v 5.8e-4 h -5.9e-4 -6e-4 -5.8e-4 -6e-4 l -5.9e-4,-5.8e-4 h -5.9e-4 c -0.0126,-0.004 -0.0402,-0.048 -0.0349,-0.0645 v -5.9e-4 l 5.8e-4,-5.8e-4 5.9e-4,-6e-4 5.9e-4,-6e-4 v -5.9e-4 -5.8e-4 h 5.9e-4 l 6e-4,-6e-4 5.9e-4,-6e-4 5.8e-4,-5.8e-4 h 6e-4 c 8.5e-4,-3.1e-4 0.001,-9.4e-4 0.003,-0.001 z" />
    <path
       style="font-variation-settings:'wght' 800;fill:#2b5d9f;fill-opacity:1;stroke-width:0"
       d="m 169.27689,143.30603 c 0.29041,0.84047 0.66493,2.14472 1.21436,3.0344 0.3904,0.63213 0.85821,1.16418 1.43988,1.57265 0.90937,0.63858 1.42627,0.92094 3.07686,1.2828 1.13699,0.24935 3.45207,0.3201 4.74872,1.33054 0.42516,0.33132 0.60507,0.88028 0.80353,1.40324 0.15209,0.40086 0.17805,0.8683 0.2836,1.29487 0.10683,0.25699 0.43933,0.1526 0.50356,-0.1223 0.13286,-0.34725 0.14409,-0.734 0.12111,-1.10327 -0.0379,-0.60899 -0.16105,-1.2301 -0.42394,-1.78075 -0.19784,-0.41445 -0.50592,-0.77738 -0.84153,-1.09086 -0.25722,-0.24024 -0.865,-0.567 -0.68292,-0.89519 0.17598,-0.31719 0.73236,0.0106 1.08337,0.10201 0.46793,0.12189 0.90072,0.35772 1.32702,0.58593 0.60862,0.32582 1.29963,0.58672 1.7467,1.11274 0.52376,0.61623 0.48568,1.63414 0.95674,2.22961 0.11892,0.15033 0.2813,0.3884 0.44564,0.30581 0.14775,-0.0742 0.15887,-0.36498 0.1703,-0.56182 0.0602,-1.03384 -5.4e-4,-2.13024 -0.54953,-2.97689 -0.39472,-0.60874 -1.20273,-0.81208 -1.79294,-1.23402 -0.26785,-0.19148 -0.54434,-0.37306 -0.79317,-0.58869 -0.12629,-0.10945 -0.25052,-0.14993 -0.26444,-0.32617 0.90089,-0.25866 1.76486,-0.25391 2.63643,-0.13292 0.29852,0.0415 0.60947,0.11712 0.85651,0.28979 0.40681,0.28437 0.6493,0.7532 0.9327,1.16068 0.22518,0.32378 0.28275,0.49361 0.50744,0.32669 0.19971,-0.19702 0.0627,-0.53409 -0.0279,-0.74286 -0.30417,-0.73011 -0.62732,-1.49285 -1.2198,-2.00266 -0.16724,-0.14392 -0.39303,-0.2179 -0.61031,-0.25616 -0.48054,-0.0846 -0.97518,0.0289 -1.46208,0.0713 -0.65579,0.0695 -2.53375,0.52561 -3.76941,0.27959 -1.03178,-0.20543 -1.95813,-0.81509 -2.81803,-1.42119 -0.84984,-0.599 -1.78891,-1.22342 -2.25909,-2.15076 -0.50847,-1.00287 -0.59838,-2.87631 -0.4324,-3.34535"
       id="path36" />
    <path
       style="font-variation-settings:'wght' 800;fill:#2b5d9f;fill-opacity:1;stroke-width:0"
       transform="matrix(1.0125385,-0.03188796,0.03188796,1.0125385,-0.70594637,0.76972455)"
       d="m 146.91398,162.54527 c 0.39678,0.72859 0.18567,1.65028 0.33744,2.46591 0.13587,0.73019 0.15642,1.51655 0.51221,2.16851 0.33834,0.61999 0.9032,1.10957 1.47071,1.52539 1.75193,1.06887 3.65947,1.84382 5.5496,2.62833 0.33989,0.12222 0.67352,0.27877 1.02018,0.37219 0.39635,0.007 0.62907,-0.58747 0.31107,-0.83841 -0.69616,-0.75793 -1.66611,-1.15815 -2.51517,-1.70895 -0.44806,-0.26173 -0.89613,-0.52346 -1.3442,-0.78519 -0.19808,-0.19849 0.0218,-0.59337 0.29492,-0.53321 1.46065,-0.0564 2.93347,-0.13227 4.38477,0.0898 0.53372,0.21626 1.0382,0.49609 1.54297,0.77148 0.31142,0.0654 0.54549,-0.40383 0.30273,-0.61133 -0.75081,-0.98465 -1.95304,-1.53008 -3.1582,-1.69531 -0.86654,-0.19726 -1.73308,-0.39453 -2.59961,-0.5918 -0.27107,-0.18822 -0.15063,-0.68855 0.17773,-0.73046 1.08757,-0.41031 2.21881,-0.68557 3.34571,-0.96289 0.8435,0.0271 1.62528,0.3797 2.42578,0.60742 0.30664,0.01 0.49062,-0.45841 0.23046,-0.64063 -0.54365,-0.59945 -1.34758,-0.84344 -2.09648,-1.07272 -1.04083,-0.19474 -2.05458,0.21579 -3.06678,0.39225 -0.82322,0.17344 -1.88725,0.91531 -2.49884,0.33868 -0.65302,-0.61569 0.38508,-1.80569 0.2041,-2.68475 -0.21855,-1.06154 -0.73212,-2.12336 -1.50708,-2.88104"
       id="path44" />
    <path
       id="path43"
       style="font-variation-settings:'wght' 800;fill:#2b5d9f;fill-opacity:1;stroke-width:0"
       d="m 144.36842,203.76772 c 2.78551,2.71741 5.72121,5.23412 8.62442,7.78566 2.25117,1.97848 4.18358,3.52578 6.16031,5.50921 3.26129,3.27233 5.80745,5.76029 8.81339,10.50103 -0.68242,-3.17214 -0.89999,-6.52653 -2.53715,-9.40106 -1.4076,-2.90678 -4.22532,-4.69144 -6.90074,-6.29835 -4.84782,-2.44951 -9.65449,-5.05405 -14.16023,-8.09649 z" />
  </g>
  <metadata
     id="metadata1">
    <rdf:RDF>
      <cc:Work
         rdf:about="">
        <dc:title>Noel Yobani Miranda – Personal Logo</dc:title>
        <dc:date>2025</dc:date>
        <dc:creator>
          <cc:Agent>
            <dc:title>Noel Yobani Miranda</dc:title>
          </cc:Agent>
        </dc:creator>
        <dc:rights>
          <cc:Agent>
            <dc:title>© 2025 Noel Yobani Miranda. All rights reserved. Do not copy, modify, or redistribute without permission.</dc:title>
          </cc:Agent>
        </dc:rights>
        <dc:publisher>
          <cc:Agent>
            <dc:title>Noel Yobani Miranda</dc:title>
          </cc:Agent>
        </dc:publisher>
        <dc:language>en</dc:language>
        <dc:subject>
          <rdf:Bag>
            <rdf:li>Noel Yobani Miranda</rdf:li>
            <rdf:li>Software Developer</rdf:li>
          </rdf:Bag>
        </dc:subject>
        <dc:description>Official personal logo of Noel Yobani Miranda. May not be reproduced, modified, or used without explicit written permission.</dc:description>
        <cc:license
           rdf:resource="https://github.com/NoelMirandaDev" />
      </cc:Work>
    </rdf:RDF>
  </metadata>
</svg>
